HIERARCHY
ROOT Hips
{
  OFFSET 5.72205e-005 65.662 3.42586
  CHANNELS 6 Xposition Yposition Zposition Zrotation Xrotation Yrotation
  JOINT Chest
  {
    OFFSET 0 8.7983 -4.7612
    CHANNELS 3 Zrotation Xrotation Yrotation
    JOINT Chest2
    {
      OFFSET 0 8.0291 0.4195
      CHANNELS 3 Zrotation Xrotation Yrotation
      JOINT Chest3
      {
        OFFSET 0 9.9351 -2.2114
        CHANNELS 3 Zrotation Xrotation Yrotation
        JOINT Neck
        {
          OFFSET 0 22.3885 -0.4656
          CHANNELS 3 Zrotation Xrotation Yrotation
          JOINT Head
          {
            OFFSET -0.0001 12.643 3.4389
            CHANNELS 3 Zrotation Xrotation Yrotation
            End Site
            {
              OFFSET 0.0001 17.6655 0.5274
            }
          }
        }
        JOINT LeftCollar
        {
          OFFSET 2.2603 21.606 7.4023
          CHANNELS 3 Zrotation Xrotation Yrotation
          JOINT LeftShoulder
          {
            OFFSET 13.5163 -1.1332 -5.0146
            CHANNELS 3 Zrotation Xrotation Yrotation
            JOINT LeftElbow
            {
              OFFSET -0.0995 -28.05 -0.2431
              CHANNELS 3 Zrotation Xrotation Yrotation
              JOINT LeftWrist
              {
                OFFSET 0.0679 -23.3996 -0.1402
                CHANNELS 3 Zrotation Xrotation Yrotation
                JOINT LeftFinger1
                {
                  OFFSET 0.7932 -9.069 2.5189
                  CHANNELS 3 Zrotation Xrotation Yrotation
                  JOINT LeftFinger11
                  {
                    OFFSET -0.8272 -3.3923 0.5977
                    CHANNELS 3 Zrotation Xrotation Yrotation
                    JOINT LeftFinger12
                    {
                      OFFSET -0.5649 -2.3158 0.4082
                      CHANNELS 3 Zrotation Xrotation Yrotation
                      End Site
                      {
                        OFFSET -0.4919 -1.6479 0.2673
                      }
                    }
                  }
                }
                JOINT LeftFinger2
                {
                  OFFSET 0.9159 -9.2044 0.2193
                  CHANNELS 3 Zrotation Xrotation Yrotation
                  JOINT LeftFinger21
                  {
                    OFFSET 0.0117 -4.1944 -0.0248
                    CHANNELS 3 Zrotation Xrotation Yrotation
                    JOINT LeftFinger22
                    {
                      OFFSET 0.0071 -2.3249 -0.0142
                      CHANNELS 3 Zrotation Xrotation Yrotation
                      End Site
                      {
                        OFFSET -0.1475 -2.0882 0.0028
                      }
                    }
                  }
                }
                JOINT LeftFinger3
                {
                  OFFSET 0.6113 -8.7231 -2.0637
                  CHANNELS 3 Zrotation Xrotation Yrotation
                  JOINT LeftFinger31
                  {
                    OFFSET -0.1927 -3.8059 -0.2383
                    CHANNELS 3 Zrotation Xrotation Yrotation
                    JOINT LeftFinger32
                    {
                      OFFSET -0.1091 -2.1688 -0.1362
                      CHANNELS 3 Zrotation Xrotation Yrotation
                      End Site
                      {
                        OFFSET -0.2358 -1.9176 -0.0906
                      }
                    }
                  }
                }
                JOINT LeftFinger4
                {
                  OFFSET -0.6151 -8.0947 -3.5641
                  CHANNELS 3 Zrotation Xrotation Yrotation
                  JOINT LeftFinger41
                  {
                    OFFSET -0.4882 -2.341 -0.6462
                    CHANNELS 3 Zrotation Xrotation Yrotation
                    JOINT LeftFinger42
                    {
                      OFFSET -0.3575 -1.7167 -0.4742
                      CHANNELS 3 Zrotation Xrotation Yrotation
                      End Site
                      {
                        OFFSET -0.4187 -1.5237 -0.3496
                      }
                    }
                  }
                }
                JOINT LeftFinger0
                {
                  OFFSET -1.42 -1.8761 1.4223
                  CHANNELS 3 Zrotation Xrotation Yrotation
                  JOINT LeftFinger01
                  {
                    OFFSET -1.1471 -3.4929 2.6334
                    CHANNELS 3 Zrotation Xrotation Yrotation
                    JOINT LeftFinger02
                    {
                      OFFSET -0.823 -2.3 1.6571
                      CHANNELS 3 Zrotation Xrotation Yrotation
                      End Site
                      {
                        OFFSET -0.5822 -1.6914 1.1582
                      }
                    }
                  }
                }
              }
            }
          }
        }
        JOINT RightCollar
        {
          OFFSET -2.2603 21.606 7.4023
          CHANNELS 3 Zrotation Xrotation Yrotation
          JOINT RightShoulder
          {
            OFFSET -13.5187 -1.1334 -5.0155
            CHANNELS 3 Zrotation Xrotation Yrotation
            JOINT RightElbow
            {
              OFFSET 0.0994 -28.0499 -0.2431
              CHANNELS 3 Zrotation Xrotation Yrotation
              JOINT RightWrist
              {
                OFFSET -0.0679 -23.3996 -0.1402
                CHANNELS 3 Zrotation Xrotation Yrotation
                JOINT RightFinger1
                {
                  OFFSET -0.7932 -9.0691 2.5189
                  CHANNELS 3 Zrotation Xrotation Yrotation
                  JOINT RightFinger11
                  {
                    OFFSET 0.8272 -3.3923 0.5977
                    CHANNELS 3 Zrotation Xrotation Yrotation
                    JOINT RightFinger12
                    {
                      OFFSET 0.565 -2.3158 0.4082
                      CHANNELS 3 Zrotation Xrotation Yrotation
                      End Site
                      {
                        OFFSET 0.4919 -1.6479 0.2673
                      }
                    }
                  }
                }
                JOINT RightFinger2
                {
                  OFFSET -0.916 -9.2044 0.2193
                  CHANNELS 3 Zrotation Xrotation Yrotation
                  JOINT RightFinger21
                  {
                    OFFSET -0.0117 -4.1944 -0.0248
                    CHANNELS 3 Zrotation Xrotation Yrotation
                    JOINT RightFinger22
                    {
                      OFFSET -0.0071 -2.3249 -0.0142
                      CHANNELS 3 Zrotation Xrotation Yrotation
                      End Site
                      {
                        OFFSET 0.1475 -2.0882 0.0028
                      }
                    }
                  }
                }
                JOINT RightFinger3
                {
                  OFFSET -0.6113 -8.7231 -2.0637
                  CHANNELS 3 Zrotation Xrotation Yrotation
                  JOINT RightFinger31
                  {
                    OFFSET 0.1927 -3.8059 -0.2383
                    CHANNELS 3 Zrotation Xrotation Yrotation
                    JOINT RightFinger32
                    {
                      OFFSET 0.1091 -2.1688 -0.1362
                      CHANNELS 3 Zrotation Xrotation Yrotation
                      End Site
                      {
                        OFFSET 0.2358 -1.9176 -0.0906
                      }
                    }
                  }
                }
                JOINT RightFinger4
                {
                  OFFSET 0.6151 -8.0947 -3.564
                  CHANNELS 3 Zrotation Xrotation Yrotation
                  JOINT RightFinger41
                  {
                    OFFSET 0.4882 -2.341 -0.6462
                    CHANNELS 3 Zrotation Xrotation Yrotation
                    JOINT RightFinger42
                    {
                      OFFSET 0.3574 -1.7166 -0.4742
                      CHANNELS 3 Zrotation Xrotation Yrotation
                      End Site
                      {
                        OFFSET 0.4187 -1.5237 -0.3496
                      }
                    }
                  }
                }
                JOINT RightFinger0
                {
                  OFFSET 1.4199 -1.8761 1.4221
                  CHANNELS 3 Zrotation Xrotation Yrotation
                  JOINT RightFinger01
                  {
                    OFFSET 1.1472 -3.4929 2.6336
                    CHANNELS 3 Zrotation Xrotation Yrotation
                    JOINT RightFinger02
                    {
                      OFFSET 0.8229 -2.3 1.6571
                      CHANNELS 3 Zrotation Xrotation Yrotation
                      End Site
                      {
                        OFFSET 0.5822 -1.6914 1.1582
                      }
                    }
                  }
                }
              }
            }
          }
        }
      }
    }
  }
  JOINT RightHip
  {
    OFFSET -9.412 3.9771 -0.7758
    CHANNELS 3 Zrotation Xrotation Yrotation
    JOINT RightKnee
    {
      OFFSET -0.7531 -40.938 0
      CHANNELS 3 Zrotation Xrotation Yrotation
      JOINT RightAnkle
      {
        OFFSET 0 -40.1986 0
        CHANNELS 3 Zrotation Xrotation Yrotation
        JOINT RightToe
        {
          OFFSET 0 -4.4182 9.239
          CHANNELS 3 Zrotation Xrotation Yrotation
          End Site
          {
            OFFSET 0 0 6.1981
          }
        }
      }
    }
  }
  JOINT LeftHip
  {
    OFFSET 9.4119 3.9773 -0.7758
    CHANNELS 3 Zrotation Xrotation Yrotation
    JOINT LeftKnee
    {
      OFFSET 0.7532 -40.9383 0
      CHANNELS 3 Zrotation Xrotation Yrotation
      JOINT LeftAnkle
      {
        OFFSET 0 -40.1986 0
        CHANNELS 3 Zrotation Xrotation Yrotation
        JOINT LeftToe
        {
          OFFSET 0 -4.4182 9.239
          CHANNELS 3 Zrotation Xrotation Yrotation
          End Site
          {
            OFFSET 0 0 6.1981
          }
        }
      }
    }
  }
}
MOTION
Frames:	6
Frame Time:	0.0333333
-0.000130185 14.6088 11.7405 -8.94941e-015 15.3999 -180 0.0195143 -6.35509 -0.0869437 0.0295303 -12.7103 -0.17331 0.0295304 -12.7103 -0.173311 4.16428 8.55262 -0.437433 9.76822 -18.9555 -14.2363 -6.95311 0.243197 -13.6325 -6.56322 59.105 39.054 -3.18746 -8.835 -0.652586 -5.94811 2.16351 -0.169329 -3.67883e-006 -5.56534e-007 -1.47255e-007 -1.59949e-007 -8.46523e-007 -6.4024e-009 -1.06633e-007 -8.64659e-007 -4.26827e-009 -3.67883e-006 -5.56534e-007 -1.47255e-007 -0.0128189 0.00232373 8.77691e-005 -1.06632e-007 -4.14235e-007 -4.2726e-009 -3.67883e-006 -5.56534e-007 -1.47255e-007 -0.0160434 0.00299362 0.000856439 1.98785e-016 3.97569e-016 3.18055e-015 -3.67883e-006 -5.56534e-007 -1.47255e-007 -0.0126012 0.00312733 0.00282825 -2.13265e-007 -1.27891e-006 -8.54826e-009 -3.67883e-006 -5.56534e-007 -1.47255e-007 -1.59949e-007 -8.46523e-007 -6.4024e-009 -1.06633e-007 -8.64659e-007 -4.26827e-009 6.01962 0.383732 8.17002 -4.13966 58.7722 -28.8791 4.50316 -14.6856 -0.738005 7.29636 1.28903 -0.128566 3.97569e-016 9.18117e-007 -3.18055e-015 7.95139e-016 7.95139e-016 3.18055e-015 7.95139e-016 7.95139e-016 6.36111e-015 3.97569e-016 9.18117e-007 -3.18055e-015 0.0129858 0.00232476 -8.71836e-005 2.45091e-007 2.62322e-007 -1.60692e-006 3.97569e-016 9.18117e-007 -3.18055e-015 0.0163788 0.00304331 -0.000877121 3.97569e-016 2.38542e-015 6.36111e-015 3.97569e-016 9.18117e-007 -3.18055e-015 0.0145771 0.00367832 -0.00326217 -1.79412e-007 3.84295e-007 -1.56587e-006 3.97569e-016 9.18117e-007 -3.18055e-015 7.95139e-016 7.95139e-016 3.18055e-015 7.95139e-016 7.95139e-016 6.36111e-015 -40.3695 -21.1729 -27.321 -150.317 35.3712 166.078 -13.4203 56.1222 -7.24583 -7.17724e-007 -1.80954e-006 -1.51841e-006 40.3642 -21.1749 27.3153 150.315 35.3706 -166.082 13.4187 56.1215 7.24402 -2.87095e-006 -1.24611e-006 -6.07352e-006 
-0.000136786 14.5249 11.7 -9.00219e-015 15.7997 -180 0.0195143 -6.3551 -0.0869437 0.0295303 -12.7102 -0.17331 0.0295303 -12.7103 -0.17331 4.13791 9.24724 -0.481903 9.72986 -18.8559 -14.1707 -5.89124 0.661398 -14.7743 -8.62689 59.2398 40.7333 -4.94646 -9.79904 -0.983461 -5.00926 3.06919 -0.215588 1.14841e-007 1.86453e-007 -1.61475e-006 9.84131e-008 8.67027e-007 1.62353e-006 1.06627e-007 4.14181e-007 4.38834e-009 1.14841e-007 1.86453e-007 -1.61475e-006 -0.0128192 0.00232568 8.99894e-005 -2.98177e-016 7.95139e-016 3.18055e-015 1.14841e-007 1.86453e-007 -1.61475e-006 -0.0160276 0.00299138 0.000861115 2.13253e-007 1.27861e-006 8.78784e-009 1.14841e-007 1.86453e-007 -1.61475e-006 -0.0125839 0.00312006 0.00282724 4.51309e-008 8.43756e-007 1.62131e-006 1.14841e-007 1.86453e-007 -1.61475e-006 9.84131e-008 8.67027e-007 1.62353e-006 1.06627e-007 4.14181e-007 4.38834e-009 4.89343 0.775408 9.31878 -4.06795 57.2833 -31.4796 7.58136 -21.5456 -1.36629 7.71938 1.3232 -0.570335 -3.97569e-015 -1.59028e-015 -3.18055e-015 -2.38542e-015 -1.59028e-015 -0 -4.58986e-007 -2.09823e-007 -1.47586e-006 -3.97569e-015 -1.59028e-015 -3.18055e-015 0.0129662 0.00231972 -9.01728e-005 3.18055e-015 3.18055e-015 -0 -3.97569e-015 -1.59028e-015 -3.18055e-015 0.0163318 0.00303153 -0.000874238 1.59028e-015 -1.59028e-015 3.18055e-015 -3.97569e-015 -1.59028e-015 -3.18055e-015 0.0145718 0.00367481 -0.0032625 -4.77083e-015 -1.59028e-015 -0 -3.97569e-015 -1.59028e-015 -3.18055e-015 -2.38542e-015 -1.59028e-015 -0 -4.58986e-007 -2.09823e-007 -1.47586e-006 -40.703 -20.9241 -27.2469 -150.298 35.3868 166.077 -14.0918 56.1442 -6.81359 -2.24816e-006 9.60704e-007 -8.75534e-007 40.6967 -20.9261 27.2402 150.296 35.3864 -166.081 14.089 56.1432 6.81396 1.26428e-006 -6.70214e-007 -1.2232e-006 
-0.000143463 14.4414 11.6598 -9.05519e-015 16.1995 -180 0.0195143 -6.3551 -0.0869437 0.0295303 -12.7102 -0.17331 0.0295303 -12.7103 -0.17331 4.11201 9.94208 -0.526152 9.69139 -18.7564 -14.1051 -4.8177 1.0596 -15.9275 -10.7057 59.3431 42.4277 -6.72496 -10.7562 -1.34695 -4.06677 3.97588 -0.276894 1.59932e-007 8.46296e-007 6.7361e-009 1.59932e-007 8.46201e-007 6.7361e-009 1.06622e-007 8.78527e-007 4.49073e-009 1.59932e-007 8.46296e-007 6.7361e-009 -0.0128022 0.00232383 8.58648e-005 2.20695e-032 3.97569e-016 -3.18055e-015 1.59932e-007 8.46296e-007 6.7361e-009 -0.0160615 0.00299747 0.000854472 -2.42517e-014 8.74653e-015 -0 1.59932e-007 8.46296e-007 6.7361e-009 -0.0125853 0.00312201 0.00282754 2.13242e-007 1.27837e-006 8.9932e-009 1.59932e-007 8.46296e-007 6.7361e-009 1.59932e-007 8.46201e-007 6.7361e-009 1.06622e-007 8.78527e-007 4.49073e-009 3.75565 1.14559 10.479 -4.1223 55.7879 -33.9823 11.2839 -28.1731 -0.996936 8.14275 1.35426 -1.01257 2.22639e-014 9.54166e-015 -6.36111e-015 2.38542e-014 6.36111e-015 -9.54166e-015 2.06736e-014 9.54166e-015 -1.27222e-014 2.22639e-014 9.54166e-015 -6.36111e-015 0.0129914 0.00231951 -8.35888e-005 -4.77083e-015 9.54166e-015 3.18055e-015 2.22639e-014 9.54166e-015 -6.36111e-015 0.0163167 0.00302765 -0.000870586 -6.04515e-006 5.96115e-007 7.71997e-006 2.22639e-014 9.54166e-015 -6.36111e-015 0.014593 0.00367272 -0.00326351 1.59028e-015 6.36111e-015 3.18055e-015 2.22639e-014 9.54166e-015 -6.36111e-015 2.38542e-014 6.36111e-015 -9.54166e-015 2.06736e-014 9.54166e-015 -1.27222e-014 -41.0358 -20.6759 -27.1714 -150.279 35.4025 166.076 -14.7637 56.1636 -6.38091 2.38542e-015 9.54166e-015 -3.18055e-015 41.0284 -20.6779 27.1636 150.277 35.4019 -166.08 14.7596 56.1619 6.38353 -4.01723e-007 2.01918e-007 1.07939e-006 
-0.000150161 14.3581 11.6198 -9.10841e-015 16.5995 -180 0.0195143 -6.35511 -0.0869437 0.0295303 -12.7103 -0.17331 0.0295304 -12.7103 -0.173311 4.08661 10.6371 -0.570188 9.65283 -18.6568 -14.0394 -3.73314 1.43713 -17.0914 -12.7976 59.4152 44.135 -8.52259 -11.7059 -1.74349 -3.1204 4.88306 -0.353396 1.98785e-016 0 9.54166e-015 3.97569e-016 0 6.36111e-015 1.98785e-016 -3.97569e-016 6.36111e-015 1.98785e-016 0 9.54166e-015 -0.0128096 0.00232321 8.73057e-005 -2.98177e-016 -3.97569e-016 3.18055e-015 1.98785e-016 0 9.54166e-015 -0.0160622 0.00299896 0.000861206 -2.98177e-016 2.62396e-014 3.18055e-015 1.98785e-016 0 9.54166e-015 -0.0126273 0.00313081 0.00283586 -1.98785e-016 -3.97569e-016 -0 1.98785e-016 0 9.54166e-015 3.97569e-016 0 6.36111e-015 1.98785e-016 -3.97569e-016 6.36111e-015 2.60705 1.49369 11.6501 -4.28626 54.2925 -36.4009 15.3094 -34.7632 -0.0816059 8.56658 1.3818 -1.45513 -6.97577e-007 -3.69265e-007 4.62557e-007 1.66603e-006 -3.39332e-006 7.21965e-007 9.68449e-007 3.9713e-007 1.18452e-006 -6.97577e-007 -3.69265e-007 4.62557e-007 0.0129454 0.0023083 -7.69372e-005 1.39512e-006 -3.29084e-006 -9.25058e-007 -6.97577e-007 -3.69265e-007 4.62557e-007 0.0163188 0.00302432 -0.000861785 -2.64834e-030 1.59028e-014 9.54166e-015 -6.97577e-007 -3.69265e-007 4.62557e-007 0.0145788 0.00367006 -0.00325007 -0 -6.36111e-015 -0 -6.97577e-007 -3.69265e-007 4.62557e-007 1.66603e-006 -3.39332e-006 7.21965e-007 9.68449e-007 3.9713e-007 1.18452e-006 -41.3679 -20.4283 -27.0945 -150.26 35.418 166.075 -15.4359 56.1801 -5.94789 -3.62872e-007 -1.63236e-006 -7.56893e-007 41.3594 -20.4303 27.0856 150.258 35.4176 -166.079 15.4306 56.1782 5.95269 -5.70154e-006 -1.10651e-005 1.50296e-006 
-0.000156907 14.2752 11.5802 -9.16186e-015 16.9995 -180 0.0195144 -6.3551 -0.0869437 0.0295303 -12.7103 -0.17331 0.0295304 -12.7103 -0.173311 4.06169 11.3321 -0.614012 9.61415 -18.5573 -13.9736 -2.63829 1.79323 -18.2653 -14.9009 59.4559 45.853 -10.3388 -12.6474 -2.17349 -2.16999 5.7903 -0.4452 -2.13226e-007 -1.27804e-006 -9.27692e-009 -6.37772e-008 2.12558e-008 1.61816e-006 -2.13226e-007 -1.27804e-006 -9.27692e-009 -2.13226e-007 -1.27804e-006 -9.27692e-009 -0.012837 0.00232741 8.75267e-005 -1.04688e-005 -4.11858e-007 2.78597e-006 -2.13226e-007 -1.27804e-006 -9.27692e-009 -0.0160329 0.00299124 0.000860317 -2.13224e-007 -1.27805e-006 -9.28809e-009 -2.13226e-007 -1.27804e-006 -9.27692e-009 -0.0126083 0.00312629 0.00283449 -5.33062e-008 -4.32037e-007 -2.32217e-009 -2.13226e-007 -1.27804e-006 -9.27692e-009 -6.37772e-008 2.12558e-008 1.61816e-006 -2.13226e-007 -1.27804e-006 -9.27692e-009 1.44843 1.81887 12.831 -4.54923 52.8012 -38.7441 20.5253 -40.8575 2.43766 8.99094 1.40562 -1.89789 -9.76515e-007 -6.69351e-006 -7.42451e-006 -6.36111e-015 6.36111e-015 6.36111e-015 4.4149e-006 -2.58489e-007 -8.24347e-006 -9.76515e-007 -6.69351e-006 -7.42451e-006 0.0129308 0.00231418 -8.59719e-005 -3.99083e-007 -5.96542e-006 -5.85954e-006 -9.76515e-007 -6.69351e-006 -7.42451e-006 0.0163407 0.00302984 -0.000878994 8.11639e-007 -3.97326e-006 -6.98775e-006 -9.76515e-007 -6.69351e-006 -7.42451e-006 0.0145812 0.00367859 -0.00325878 -1.60956e-006 -4.32953e-006 -4.73143e-006 -9.76515e-007 -6.69351e-006 -7.42451e-006 -6.36111e-015 6.36111e-015 6.36111e-015 4.4149e-006 -2.58489e-007 -8.24347e-006 -41.6992 -20.1812 -27.0163 -150.241 35.4334 166.074 -16.1083 56.1938 -5.51468 1.49042e-006 -1.15146e-006 1.18836e-006 41.6897 -20.1833 27.0063 150.239 35.4331 -166.078 16.1017 56.1916 5.5217 -1.34725e-007 6.0715e-008 1.67116e-006 
-0.000165177 14.1926 11.5408 -9.21555e-015 17.3995 -180 0.0195143 -6.35511 -0.0869437 0.0295303 -12.7103 -0.17331 0.0295304 -12.7103 -0.173311 4.03725 12.027 -0.657633 9.57537 -18.4578 -13.9078 -1.5339 2.12746 -19.4485 -17.0052 59.464 47.5724 -12.175 -13.5762 -2.63678 -1.21522 6.69713 -0.552424 2.13219e-007 1.27796e-006 9.36396e-009 1.0661e-007 4.14071e-007 4.68198e-009 1.70526e-007 8.42616e-007 -1.61369e-006 2.13219e-007 1.27796e-006 9.36396e-009 -0.0128197 0.00232627 8.29835e-005 -2.98177e-016 3.97569e-016 -6.36111e-015 2.13219e-007 1.27796e-006 9.36396e-009 -0.0160829 0.00300244 0.000855295 -3.52379e-006 7.29394e-007 4.17029e-006 2.13219e-007 1.27796e-006 9.36396e-009 -0.0126355 0.00313203 0.00283355 1.06609e-007 4.14074e-007 4.68788e-009 2.13219e-007 1.27796e-006 9.36396e-009 1.0661e-007 4.14071e-007 4.68198e-009 1.70526e-007 8.42616e-007 -1.61369e-006 0.280647 2.12067 14.0211 -4.90068 51.3184 -41.0199 26.7037 -46.7503 6.03517 9.41541 1.42677 -2.34108 6.36111e-015 3.18055e-015 -4.77083e-015 6.36111e-015 3.18055e-015 4.77083e-015 0 3.18055e-015 -0 6.36111e-015 3.18055e-015 -4.77083e-015 0.0129079 0.00230145 -8.98166e-005 3.18055e-015 -3.18055e-015 -6.36111e-015 6.36111e-015 3.18055e-015 -4.77083e-015 0.0163482 0.00303413 -0.000872563 3.18055e-015 -6.36111e-015 -0 6.36111e-015 3.18055e-015 -4.77083e-015 0.0145546 0.00367528 -0.00325486 1.97931e-006 -4.01569e-007 -2.60635e-006 6.36111e-015 3.18055e-015 -4.77083e-015 6.36111e-015 3.18055e-015 4.77083e-015 0 3.18055e-015 -0 -42.0298 -19.9347 -26.9367 -150.222 35.4488 166.073 -16.7808 56.2048 -5.0813 -4.26382e-007 -1.29982e-007 2.9161e-006 42.0193 -19.9368 26.9257 150.22 35.4485 -166.077 16.7729 56.2022 5.09055 -1.12696e-006 -4.05437e-006 -4.30365e-007 
